<svg version="1.1" xmlns="http://www.w3.org/2000/svg" viewBox="-347.6479522705078 -2975.744165039062 3264.512060546875 4335.616210937499"><desc>Created with Snap</desc><defs></defs><g><g transform="matrix(43.411,0,0,43.411,-104.5445,-3204.1927)"><g><g><rect x="24.617" y="30.645" width="4.794" height="14.095" fill="#00203f" style=""></rect><rect x="38.062" y="30.645" width="4.795" height="14.095" fill="#00203f" style=""></rect><rect x="51.506" y="30.645" width="4.795" height="14.095" fill="#00203f" style=""></rect><rect x="32.034" y="37.692" width="3.233" height="7.047" fill="#00203f" style=""></rect><rect x="45.649" y="37.692" width="3.232" height="7.047" fill="#00203f" style=""></rect><rect x="23.398" y="46.46" width="34.122" height="2.212" fill="#00203f" style=""></rect><rect x="19.739" y="49.448" width="41.438" height="2.213" fill="#00203f" style=""></rect><path d="M40.457,16.679L18.917,28.89L62,28.891L40.457,16.679z M40.457,18.457l15.676,8.886H24.784L40.457,18.457z" fill="#00203f" style=""></path><circle cx="40.459" cy="23.486" r="2.638" fill="#00203f" style=""></circle></g><path d="M23.398,34.481c-1.273,0.219-2.289,0.506-2.966,0.736v-4.892h-1.384v4.892c-1.262-0.428-3.663-1.064-6.804-1.064   c-2.397,0-4.791,0.373-7.128,1.109v-19.72c0.854-0.497,3.458-1.819,6.948-1.819c2.389,0,4.736,0.618,6.984,1.839v11.673   l1.384-0.771V15.563c2.248-1.221,4.595-1.839,6.984-1.839c3.489,0,6.094,1.322,6.947,1.819v3.162l2.518-1.402l-1.133-0.951v-1.56   l-0.301-0.206c-0.134-0.093-3.334-2.247-8.031-2.247c-2.635,0-5.214,0.689-7.677,2.033c-2.462-1.344-5.041-2.033-7.676-2.033   c-4.698,0-7.897,2.154-8.032,2.247l-0.301,0.206v1.56L2,17.807v18.16v3.167v0.775h17.739h3.659V34.481z" fill="#00203f" style=""></path></g><desc>Created with Snap</desc><defs></defs></g><g><g transform="matrix(1.024,0,0,-1.024,0,0)"><path d="M355 639Q410 639 454 631Q499 623 537 603L515 531Q478 548 442 556Q407 564 366 564Q322 564 282 551Q242 538 211 508Q181 479 163 431Q145 384 145 314Q145 193 200 130Q255 67 355 67Q393 67 420 71Q448 75 474 85L474 260L355 260L355 332L560 332L560 28Q520 12 471 1Q422 -9 355 -9Q290 -9 233 12Q177 33 135 74Q93 115 69 175Q45 235 45 314Q45 393 68 454Q92 515 133 556Q174 597 231 618Q288 639 355 639ZM771 0L684 0L684 470L750 470L765 376Q782 421 821 449Q860 477 911 477Q937 477 954 473Q971 469 985 463L968 386Q956 392 941 396Q927 400 907 400Q878 400 853 390Q829 380 810 360Q792 340 781 310Q771 281 771 243L771 0ZM1458 271L1458 225L1121 225L1121 221Q1121 143 1163 101Q1206 59 1279 59Q1317 59 1346 65Q1376 71 1411 85L1429 20Q1400 7 1360 -1Q1321 -9 1276 -9Q1225 -9 1180 5Q1136 19 1102 48Q1068 78 1048 124Q1029 170 1029 234Q1029 289 1045 334Q1062 379 1092 410Q1122 442 1164 459Q1207 477 1260 477Q1305 477 1341 462Q1378 447 1404 420Q1430 393 1444 355Q1458 317 1458 271ZM1123 286L1367 288Q1367 314 1360 336Q1354 359 1340 376Q1327 393 1306 403Q1285 413 1255 413Q1200 413 1165 378Q1131 343 1123 286ZM1962 271L1962 225L1625 225L1625 221Q1625 143 1667 101Q1710 59 1783 59Q1821 59 1850 65Q1880 71 1915 85L1933 20Q1904 7 1864 -1Q1825 -9 1780 -9Q1729 -9 1684 5Q1640 19 1606 48Q1572 78 1552 124Q1533 170 1533 234Q1533 289 1549 334Q1566 379 1596 410Q1626 442 1668 459Q1711 477 1764 477Q1809 477 1845 462Q1882 447 1908 420Q1934 393 1948 355Q1962 317 1962 271ZM1627 286L1871 288Q1871 314 1864 336Q1858 359 1844 376Q1831 393 1810 403Q1789 413 1759 413Q1704 413 1669 378Q1635 343 1627 286ZM2154 342L2154 0L2066 0L2066 470L2135 470L2148 405Q2183 440 2221 458Q2260 477 2310 477Q2382 477 2423 436Q2464 396 2464 324L2464 0L2376 0L2376 311Q2376 354 2353 379Q2331 405 2285 405Q2215 405 2154 342Z" fill="#00203f" style=""></path></g></g><g transform="matrix(1,0,0,1,-76.288,1043.456)"><g transform="matrix(1.024,0,0,-1.024,0,0)"><path d="M352 449L332 382Q299 398 272 404Q245 410 218 410Q170 410 147 392Q124 375 124 346Q124 325 140 309Q156 294 207 279L237 270Q304 250 338 218Q373 187 373 133Q373 69 325 30Q278 -9 193 -9Q148 -9 106 -1Q65 7 35 21L56 90Q85 76 119 67Q153 59 188 59Q233 59 259 75Q286 91 286 128Q286 160 263 173Q240 187 197 200L166 210Q101 231 69 262Q38 294 38 344Q38 374 51 399Q64 424 86 441Q109 458 140 467Q171 477 208 477Q243 477 280 470Q318 464 352 449ZM698 59Q730 59 754 66Q778 73 801 84L820 18Q766 -9 691 -9Q640 -9 595 6Q551 21 517 51Q484 82 465 127Q446 173 446 234Q446 290 464 335Q482 380 514 411Q546 443 591 460Q636 477 690 477Q721 477 750 472Q780 468 818 451L798 384Q752 410 699 410Q626 410 581 364Q536 319 536 237Q536 186 550 152Q564 118 587 97Q610 77 639 68Q668 59 698 59ZM1006 340L1006 0L918 0L918 710L1006 710L1006 410Q1039 439 1079 458Q1119 477 1167 477Q1206 477 1235 465Q1264 454 1282 433Q1301 413 1310 385Q1320 357 1320 324L1320 0L1232 0L1232 302Q1232 356 1210 380Q1188 405 1143 405Q1109 405 1074 388Q1040 371 1006 340ZM1888 240Q1888 181 1870 134Q1852 88 1820 56Q1789 24 1747 7Q1705 -9 1656 -9Q1607 -9 1565 6Q1524 22 1493 52Q1463 83 1445 127Q1428 172 1428 230Q1428 289 1446 335Q1464 381 1495 412Q1527 444 1569 460Q1611 477 1660 477Q1709 477 1750 462Q1792 447 1822 417Q1853 387 1870 342Q1888 298 1888 240ZM1796 235Q1796 282 1784 315Q1772 348 1752 369Q1733 390 1708 399Q1683 409 1657 409Q1631 409 1606 401Q1581 393 1562 373Q1543 353 1531 319Q1520 286 1520 235Q1520 188 1532 154Q1544 121 1563 100Q1583 79 1608 69Q1633 59 1659 59Q1685 59 1710 67Q1735 76 1754 96Q1773 117 1784 150Q1796 184 1796 235ZM2426 240Q2426 181 2408 134Q2390 88 2358 56Q2327 24 2285 7Q2243 -9 2194 -9Q2145 -9 2103 6Q2062 22 2031 52Q2001 83 1983 127Q1966 172 1966 230Q1966 289 1984 335Q2002 381 2033 412Q2065 444 2107 460Q2149 477 2198 477Q2247 477 2288 462Q2330 447 2360 417Q2391 387 2408 342Q2426 298 2426 240ZM2334 235Q2334 282 2322 315Q2310 348 2290 369Q2271 390 2246 399Q2221 409 2195 409Q2169 409 2144 401Q2119 393 2100 373Q2081 353 2069 319Q2058 286 2058 235Q2058 188 2070 154Q2082 121 2101 100Q2121 79 2146 69Q2171 59 2197 59Q2223 59 2248 67Q2273 76 2292 96Q2311 117 2322 150Q2334 184 2334 235ZM2623 0L2537 0L2537 710L2623 710L2623 0Z" fill="#00203f" style=""></path></g></g></g></svg>